HIERARCHY
ROOT ui
{
	 OFFSET 0 0 0
	 CHANNELS 3 XPosition YPosition Z Position
	 EndSite
	 {
	 OFFSET 0 -1 0
	 }
}
ROOT li
{
	 OFFSET 0 0 0
	 CHANNELS 3 XPosition YPosition Z Position
	 EndSite
	 {
	 OFFSET 0 -1 0
	 }
}
ROOT ul
{
	 OFFSET 0 0 0
	 CHANNELS 3 XPosition YPosition Z Position
	 EndSite
	 {
	 OFFSET 0 -1 0
	 }
}
ROOT ll
{
	 OFFSET 0 0 0
	 CHANNELS 3 XPosition YPosition Z Position
	 EndSite
	 {
	 OFFSET 0 -1 0
	 }
}
ROOT tt
{
	 OFFSET 0 0 0
	 CHANNELS 3 XPosition YPosition Z Position
	 EndSite
	 {
	 OFFSET 0 -1 0
	 }
}
ROOT tb
{
	 OFFSET 0 0 0
	 CHANNELS 3 XPosition YPosition Z Position
	 EndSite
	 {
	 OFFSET 0 -1 0
	 }
}
ROOT td
{
	 OFFSET 0 0 0
	 CHANNELS 3 XPosition YPosition Z Position
	 EndSite
	 {
	 OFFSET 0 -1 0
	 }
}
ROOT v
{
	 OFFSET 0 0 0
	 CHANNELS 3 XPosition YPosition Z Position
	 EndSite
	 {
	 OFFSET 0 -1 0
	 }
}
ROOT bn
{
	 OFFSET 0 0 0
	 CHANNELS 3 XPosition YPosition Z Position
	 EndSite
	 {
	 OFFSET 0 -1 0
	 }
}
MOTION
Frames: 21
Frame Time: 0.002
-0.015705004692077636	-0.004069461822509766	0		0.5630084838867188	-2.9675947265625	0		-1.0085553588867187	0.09344551086425781	0		-0.1343109130859375	-3.464849853515625	0		1.7909266357421876	-1.5529510498046875	0		2.841491943359375	-0.562106689453125	0		4.13861083984375	0.15360987854003907	0		6.0031435546875	0.5315405883789063	0		-0.36838482666015626	5.897841796875	0		
-0.00542929983139038	0.005977180004119873	0		0.5943067626953125	-2.96478955078125	0		-0.9905853881835938	0.07935599517822266	0		-0.15380137634277344	-3.446431640625	0		1.7982486572265626	-1.5437982177734375	0		2.852153076171875	-0.5229542236328125	0		4.140994140625	0.17291351318359374	0		5.9961162109375	0.5324536743164062	0		-0.3343971862792969	5.90257373046875	0		
0.00458384895324707	-0.003967173099517822	0		0.5696182861328125	-2.95927490234375	0		-0.9944986572265625	0.0755507583618164	0		-0.12735116577148436	-3.431583740234375	0		1.7887203369140625	-1.52142919921875	0		2.839174560546875	-0.5335067749023438	0		4.1592138671875	0.18001806640625	0		5.9861474609375	0.5178784790039063	0		-0.3836559448242188	5.88835693359375	0		
0.019839363098144533	0.006031752109527588	0		0.6327708740234375	-2.96585498046875	0		-0.8955896606445313	0.05746867752075195	0		-0.18961065673828126	-3.391617431640625	0		1.78890380859375	-1.521181396484375	0		2.83767431640625	-0.505200439453125	0		4.15933935546875	0.18034658813476562	0		5.9825927734375	0.5030954284667969	0		-0.38273736572265626	5.88751806640625	0		
-0.01211887264251709	-3.7533798813819887E-4	0		0.5821065673828125	-2.95600732421875	0		-0.961658935546875	0.042457164764404295	0		-0.14929360961914062	-3.38492919921875	0		1.82012548828125	-1.5173187255859375	0		2.843916015625	-0.4969937744140625	0		4.15253564453125	0.18675675964355468	0		5.982681640625	0.5037553405761719	0		-0.38279519653320315	5.88769921875	0		
-0.0021083409786224363	-0.009300601959228516	0		0.5931884155273438	-2.96592822265625	0		-0.9937333984375	0.02702754783630371	0		-0.2327696533203125	-3.3596923828125	0		1.7874185791015624	-1.5066590576171874	0		2.852487548828125	-0.46181658935546877	0		4.16387646484375	0.20493508911132813	0		5.97757080078125	0.46475753784179685	0		-0.34879193115234375	5.89146435546875	0		
-0.00478826904296875	0.006939153194427491	0		0.5616226806640625	-2.94631396484375	0		-0.9817379150390625	0.01705816650390625	0		-0.18123257446289062	-3.333129150390625	0		1.8226990966796874	-1.496844970703125	0		2.860470947265625	-0.4736389465332031	0		4.1790654296875	0.21105767822265625	0		5.97712841796875	0.501721435546875	0		-0.34881976318359376	5.8916591796875	0		
0.020330909729003907	0.0068382987976074215	0		0.5877699584960937	-2.949414306640625	0		-0.985666259765625	0.013295088768005371	0		-0.2307489776611328	-3.30930712890625	0		1.812089599609375	-1.4774610595703126	0		2.8631103515625	-0.432394775390625	0		4.183255859375	0.2173089294433594	0		5.97774169921875	0.4659637451171875	0		-0.3488288269042969	5.8918603515625	0		
0.005331192970275879	-0.002761948108673096	0		0.5879483032226562	-2.949190185546875	0		-0.9616814575195313	0.0021938419342041014	0		-0.2132313690185547	-3.282310546875	0		1.8333499755859375	-1.4684742431640625	0		2.87526513671875	-0.43027630615234375	0		4.18253564453125	0.2306121063232422	0		5.9706962890625	0.46674160766601563	0		-0.3828758850097656	5.88748779296875	0		
0.010454867362976074	-0.002607433080673218	0		0.5673536987304687	-2.92970703125	0		-0.992752685546875	-0.013220706939697265	0		-0.24472125244140625	-3.25470458984375	0		1.8217196044921875	-1.4500831298828125	0		2.87659326171875	-0.4140296630859375	0		4.20264208984375	0.22964544677734375	0		5.9607197265625	0.452004638671875	0		-0.3818544616699219	5.886685546875	0		
-0.00733502721786499	0.004831868171691895	0		0.5933482666015625	-2.942802490234375	0		-0.98290234375	-0.03513644027709961	0		-0.24427679443359376	-3.231491455078125	0		1.82898193359375	-1.43993115234375	0		2.881719970703125	-0.41383978271484373	0		4.1879111328125	0.24209678649902344	0		5.96445166015625	0.46796527099609375	0		-0.3647041320800781	5.8946884765625	0		
0.002657594919204712	-0.005073007106781006	0		0.5716022338867187	-2.933309326171875	0		-1.0128446655273438	-0.0395567626953125	0		-0.30266006469726564	-3.19255126953125	0		1.8382579345703125	-1.4278099365234376	0		2.894320068359375	-0.37474880981445313	0		4.21917138671875	0.2539665222167969	0		5.96453515625	0.4684287109375	0		-0.36364926147460935	5.89389111328125	0		
-0.004074750900268554	0.008228526115417481	0		0.5799702758789063	-2.913190185546875	0		-0.9689134521484375	-0.053886913299560545	0		-0.24820794677734376	-3.166004150390625	0		1.84344580078125	-1.421646240234375	0		2.88129443359375	-0.38535647583007815	0		4.2143759765625	0.2622657165527344	0		5.96096533203125	0.4533944396972656	0		-0.36456060791015626	5.89511767578125	0		
-0.011067045211791993	0.0015282570123672486	0		0.5520848999023438	-2.911631103515625	0		-0.9880278930664063	-0.07044081115722656	0		-0.313744873046875	-3.135980712890625	0		1.8366416015625	-1.4133433837890625	0		2.89758447265625	-0.3693351745605469	0		4.22545556640625	0.26135299682617186	0		5.95738720703125	0.4383245849609375	0		-0.37862759399414064	5.8835029296875	0		
-0.010989548683166504	0.0017354660034179688	0		0.6050838623046875	-2.918076416015625	0		-0.9931471557617187	-0.08617060089111328	0		-0.32324835205078123	-3.10165283203125	0		1.827978271484375	-1.3920272216796874	0		2.906624267578125	-0.37223919677734374	0		4.222693359375	0.27459536743164065	0		5.95031005859375	0.4388941955566406	0		-0.3785489807128906	5.88371044921875	0		
-0.013965039253234864	-0.0010290180444717408	0		0.5593147583007813	-2.903313720703125	0		-0.9982705078125	-0.10090737915039062	0		-0.3178368835449219	-3.072517822265625	0		1.82317236328125	-1.3807720947265625	0		2.903091796875	-0.3390004577636719	0		4.23375439453125	0.27464889526367187	0		5.94323095703125	0.4411577453613281	0		-0.3633651123046875	5.89272412109375	0		
0.003043987989425659	-0.004052310943603516	0		0.5873372802734375	-2.904474853515625	0		-0.9982235717773438	-0.10071785736083984	0		-0.3223070983886719	-3.03227197265625	0		1.793364990234375	-1.3682237548828124	0		2.8950029296875	-0.349725341796875	0		4.23703662109375	0.29378140258789065	0		5.94326513671875	0.44144287109375	0		-0.3282378845214844	5.8974794921875	0		
-0.0037574949264526365	0.009203314781188965	0		0.5727088623046875	-2.876124267578125	0		-0.9903595581054687	-0.11464082336425781	0		-0.3308501892089844	-2.996991943359375	0		1.826492919921875	-1.3604686279296876	0		2.924172607421875	-0.3389259338378906	0		4.2450009765625	0.2878352355957031	0		5.9474833984375	0.4242664184570312	0		-0.3763683776855469	5.882244140625	0		
0.011151338577270508	-8.297619819641113E-4	0		0.6137630004882813	-2.8734814453125	0		-0.9955114135742188	-0.12942234802246094	0		-0.3394104309082031	-2.96273095703125	0		1.81960693359375	-1.353239990234375	0		2.91411865234375	-0.34566412353515624	0		4.2601083984375	0.29378170776367185	0		5.9426201171875	0.4453890380859375	0		-0.36218618774414063	5.8922236328125	0		
-0.003937139987945557	-0.010515791893005371	0		0.5638871459960938	-2.864739501953125	0		-1.00356396484375	-0.13619073486328126	0		-0.33606854248046875	-2.936640380859375	0		1.806821044921875	-1.337960205078125	0		2.90823779296875	-0.3384747619628906	0		4.2601435546875	0.29389190673828125	0		5.93675341796875	0.40941082763671877	0		-0.3611399536132813	5.89134130859375	0		
0.021099159240722656	-0.0107226505279541	0		0.5689894409179688	-2.858701904296875	0		-1.0406591796875	-0.14662814331054688	0		-0.34057080078125	-2.898478759765625	0		1.778054443359375	-1.3215079345703125	0		2.923150390625	-0.3485672302246094	0		4.269169921875	0.2928682556152344	0		5.94391357421875	0.4093385925292969	0		-0.3581314697265625	5.8874072265625	0		
